<mxfile host="app.diagrams.net" modified="2023-09-28T13:23:31.795Z" agent="Mozilla/5.0 (Windows NT 10.0; Win64; x64) AppleWebKit/537.36 (KHTML, like Gecko) Chrome/117.0.0.0 Safari/537.36 Edg/117.0.2045.41" etag="Rf-akTp8w66_6IzFSNar" version="21.8.2" type="onedrive">
  <diagram name="Page-1" id="ND3Hwh0ifRAhI9esrU4s">
    <mxGraphModel dx="1670" dy="1052" grid="1" gridSize="10" guides="1" tooltips="1" connect="1" arrows="1" fold="1" page="1" pageScale="1" pageWidth="850" pageHeight="1100" math="0" shadow="0">
      <root>
        <mxCell id="0" />
        <mxCell id="1" parent="0" />
        <mxCell id="3TojC12CAsbudtZHqdCs-3" value="" style="edgeStyle=orthogonalEdgeStyle;rounded=0;orthogonalLoop=1;jettySize=auto;html=1;" edge="1" parent="1" source="3TojC12CAsbudtZHqdCs-1" target="3TojC12CAsbudtZHqdCs-2">
          <mxGeometry relative="1" as="geometry" />
        </mxCell>
        <mxCell id="3TojC12CAsbudtZHqdCs-1" value="Mine Block" style="ellipse;whiteSpace=wrap;html=1;" vertex="1" parent="1">
          <mxGeometry x="50" y="20" width="120" height="70" as="geometry" />
        </mxCell>
        <mxCell id="3TojC12CAsbudtZHqdCs-5" value="" style="edgeStyle=orthogonalEdgeStyle;rounded=0;orthogonalLoop=1;jettySize=auto;html=1;" edge="1" parent="1" source="3TojC12CAsbudtZHqdCs-2" target="3TojC12CAsbudtZHqdCs-4">
          <mxGeometry relative="1" as="geometry" />
        </mxCell>
        <mxCell id="3TojC12CAsbudtZHqdCs-2" value="int blockType = world[playerX][playerY]" style="whiteSpace=wrap;html=1;" vertex="1" parent="1">
          <mxGeometry x="5" y="160" width="210" height="60" as="geometry" />
        </mxCell>
        <mxCell id="3TojC12CAsbudtZHqdCs-7" value="Yes" style="edgeStyle=orthogonalEdgeStyle;rounded=0;orthogonalLoop=1;jettySize=auto;html=1;entryX=0;entryY=0.5;entryDx=0;entryDy=0;" edge="1" parent="1" source="3TojC12CAsbudtZHqdCs-4" target="3TojC12CAsbudtZHqdCs-8">
          <mxGeometry relative="1" as="geometry">
            <mxPoint x="250" y="330" as="targetPoint" />
          </mxGeometry>
        </mxCell>
        <mxCell id="3TojC12CAsbudtZHqdCs-15" value="" style="edgeStyle=orthogonalEdgeStyle;rounded=0;orthogonalLoop=1;jettySize=auto;html=1;" edge="1" parent="1" source="3TojC12CAsbudtZHqdCs-4" target="3TojC12CAsbudtZHqdCs-14">
          <mxGeometry relative="1" as="geometry" />
        </mxCell>
        <mxCell id="3TojC12CAsbudtZHqdCs-16" value="No" style="edgeLabel;html=1;align=center;verticalAlign=middle;resizable=0;points=[];" vertex="1" connectable="0" parent="3TojC12CAsbudtZHqdCs-15">
          <mxGeometry x="-0.1381" y="-1" relative="1" as="geometry">
            <mxPoint as="offset" />
          </mxGeometry>
        </mxCell>
        <mxCell id="3TojC12CAsbudtZHqdCs-4" value="if blockType is not AIR" style="rhombus;whiteSpace=wrap;html=1;" vertex="1" parent="1">
          <mxGeometry x="45" y="290" width="130" height="80" as="geometry" />
        </mxCell>
        <mxCell id="3TojC12CAsbudtZHqdCs-11" value="" style="edgeStyle=orthogonalEdgeStyle;rounded=0;orthogonalLoop=1;jettySize=auto;html=1;" edge="1" parent="1" source="3TojC12CAsbudtZHqdCs-8" target="3TojC12CAsbudtZHqdCs-10">
          <mxGeometry relative="1" as="geometry" />
        </mxCell>
        <mxCell id="3TojC12CAsbudtZHqdCs-8" value="Add blockType to inventory" style="shape=process;whiteSpace=wrap;html=1;backgroundOutline=1;" vertex="1" parent="1">
          <mxGeometry x="230" y="300" width="120" height="60" as="geometry" />
        </mxCell>
        <mxCell id="3TojC12CAsbudtZHqdCs-13" value="" style="edgeStyle=orthogonalEdgeStyle;rounded=0;orthogonalLoop=1;jettySize=auto;html=1;" edge="1" parent="1" source="3TojC12CAsbudtZHqdCs-10" target="3TojC12CAsbudtZHqdCs-12">
          <mxGeometry relative="1" as="geometry" />
        </mxCell>
        <mxCell id="3TojC12CAsbudtZHqdCs-10" value="world[playerX][playerY] = AIR" style="whiteSpace=wrap;html=1;" vertex="1" parent="1">
          <mxGeometry x="400" y="300" width="170" height="60" as="geometry" />
        </mxCell>
        <mxCell id="3TojC12CAsbudtZHqdCs-23" style="edgeStyle=orthogonalEdgeStyle;rounded=0;orthogonalLoop=1;jettySize=auto;html=1;exitX=1;exitY=0.5;exitDx=0;exitDy=0;entryX=1;entryY=0.5;entryDx=0;entryDy=0;" edge="1" parent="1" source="3TojC12CAsbudtZHqdCs-12" target="3TojC12CAsbudtZHqdCs-17">
          <mxGeometry relative="1" as="geometry">
            <Array as="points">
              <mxPoint x="830" y="330" />
              <mxPoint x="830" y="470" />
            </Array>
          </mxGeometry>
        </mxCell>
        <mxCell id="3TojC12CAsbudtZHqdCs-12" value="Print &quot;Mined (name of block type).&quot;" style="shape=parallelogram;perimeter=parallelogramPerimeter;whiteSpace=wrap;html=1;fixedSize=1;" vertex="1" parent="1">
          <mxGeometry x="610" y="300" width="215" height="60" as="geometry" />
        </mxCell>
        <mxCell id="3TojC12CAsbudtZHqdCs-22" style="edgeStyle=orthogonalEdgeStyle;rounded=0;orthogonalLoop=1;jettySize=auto;html=1;exitX=1;exitY=0.5;exitDx=0;exitDy=0;entryX=0;entryY=0.5;entryDx=0;entryDy=0;" edge="1" parent="1" source="3TojC12CAsbudtZHqdCs-14" target="3TojC12CAsbudtZHqdCs-17">
          <mxGeometry relative="1" as="geometry" />
        </mxCell>
        <mxCell id="3TojC12CAsbudtZHqdCs-14" value="Print&amp;nbsp; &quot;No block to mine here.&quot;" style="shape=parallelogram;perimeter=parallelogramPerimeter;whiteSpace=wrap;html=1;fixedSize=1;" vertex="1" parent="1">
          <mxGeometry x="30" y="440" width="160" height="60" as="geometry" />
        </mxCell>
        <mxCell id="3TojC12CAsbudtZHqdCs-21" value="" style="edgeStyle=orthogonalEdgeStyle;rounded=0;orthogonalLoop=1;jettySize=auto;html=1;" edge="1" parent="1" source="3TojC12CAsbudtZHqdCs-17" target="3TojC12CAsbudtZHqdCs-20">
          <mxGeometry relative="1" as="geometry" />
        </mxCell>
        <mxCell id="3TojC12CAsbudtZHqdCs-17" value="Wait for Enter" style="shape=process;whiteSpace=wrap;html=1;backgroundOutline=1;" vertex="1" parent="1">
          <mxGeometry x="630" y="440" width="120" height="60" as="geometry" />
        </mxCell>
        <mxCell id="3TojC12CAsbudtZHqdCs-20" value="End" style="ellipse;whiteSpace=wrap;html=1;" vertex="1" parent="1">
          <mxGeometry x="630" y="570" width="120" height="70" as="geometry" />
        </mxCell>
      </root>
    </mxGraphModel>
  </diagram>
</mxfile>
